<?xml version="1.0" encoding="UTF-8" standalone="no"?>
<!DOCTYPE svg PUBLIC "-//W3C//DTD SVG 1.1//EN" "http://www.w3.org/Graphics/SVG/1.1/DTD/svg11.dtd">
<svg version="1.1" xmlns="http://www.w3.org/2000/svg" xmlns:xlink="http://www.w3.org/1999/xlink" preserveAspectRatio="xMidYMid meet" viewBox="0 0 200 200" width="200" height="200"><defs><path d="M182.41 100C182.41 145.48 145.48 182.41 100 182.41C54.52 182.41 17.59 145.48 17.59 100C17.59 54.52 54.52 17.59 100 17.59C145.48 17.59 182.41 54.52 182.41 100Z" id="a9KwOrcI2B"></path><clipPath id="clipbIyLkfKpI"><use xlink:href="#a9KwOrcI2B" opacity="1"></use></clipPath><path d="M148.08 100C148.08 126.53 126.53 148.08 100 148.08C73.47 148.08 51.92 126.53 51.92 100C51.92 73.47 73.47 51.92 100 51.92C126.53 51.92 148.08 73.47 148.08 100Z" id="d3O9qzPdCl"></path><clipPath id="clipah72gRW2X"><use xlink:href="#d3O9qzPdCl" opacity="1"></use></clipPath><path d="M100.23 0C103.33 0 105.83 2.51 105.83 5.6C105.83 9.28 105.83 14.72 105.83 18.4C105.83 21.49 103.33 24 100.23 24C99.02 24 100.98 24 99.77 24C96.67 24 94.17 21.49 94.17 18.4C94.17 14.72 94.17 9.28 94.17 5.6C94.17 2.51 96.67 0 99.77 0C100.98 0 99.02 0 100.23 0Z" id="c3gyLwKqqO"></path><path d="M23.33 100.23C23.33 103.33 20.83 105.83 17.73 105.83C14.05 105.83 8.61 105.83 4.93 105.83C1.84 105.83 -0.67 103.33 -0.67 100.23C-0.67 99.02 -0.67 100.98 -0.67 99.77C-0.67 96.67 1.84 94.17 4.93 94.17C8.61 94.17 14.05 94.17 17.73 94.17C20.83 94.17 23.33 96.67 23.33 99.77C23.33 100.98 23.33 99.02 23.33 100.23Z" id="cHoU5dKiC"></path><path d="M200 100.23C200 103.33 197.49 105.83 194.4 105.83C190.72 105.83 185.28 105.83 181.6 105.83C178.51 105.83 176 103.33 176 100.23C176 99.02 176 100.98 176 99.77C176 96.67 178.51 94.17 181.6 94.17C185.28 94.17 190.72 94.17 194.4 94.17C197.49 94.17 200 96.67 200 99.77C200 100.98 200 99.02 200 100.23Z" id="b5oC3BNCdx"></path><path d="M100.23 176C103.33 176 105.83 178.51 105.83 181.6C105.83 185.28 105.83 190.72 105.83 194.4C105.83 197.49 103.33 200 100.23 200C99.02 200 100.98 200 99.77 200C96.67 200 94.17 197.49 94.17 194.4C94.17 190.72 94.17 185.28 94.17 181.6C94.17 178.51 96.67 176 99.77 176C100.98 176 99.02 176 100.23 176Z" id="djnQywTOl"></path></defs><g><g><g><g clip-path="url(#clipbIyLkfKpI)"><use xlink:href="#a9KwOrcI2B" opacity="1" fill-opacity="0" stroke="#30bcc9" stroke-width="14" stroke-opacity="1"></use></g></g><g><g clip-path="url(#clipah72gRW2X)"><use xlink:href="#d3O9qzPdCl" opacity="1" fill-opacity="0" stroke="#30bcc9" stroke-width="20" stroke-opacity="1"></use></g></g><g><use xlink:href="#c3gyLwKqqO" opacity="1" fill="#30bcc9" fill-opacity="1"></use></g><g><use xlink:href="#cHoU5dKiC" opacity="1" fill="#30bcc9" fill-opacity="1"></use></g><g><use xlink:href="#b5oC3BNCdx" opacity="1" fill="#30bcc9" fill-opacity="1"></use></g><g><use xlink:href="#djnQywTOl" opacity="1" fill="#30bcc9" fill-opacity="1"></use></g></g></g></svg>